<?xml version="1.0" encoding="UTF-8"?> <svg xmlns="http://www.w3.org/2000/svg" width="21" height="33" viewBox="0 0 21 33" fill="none"> <path d="M16.2099 9.4643L5.4231 9.40891C4.66462 9.40501 4.04055 9.99515 4.02922 10.727L4.02652 10.9012C4.01519 11.6331 4.62087 12.2295 5.37935 12.2334L16.1662 12.2888C16.9247 12.2927 17.5487 11.7026 17.5601 10.9707L17.5627 10.7965C17.5741 10.0646 16.9684 9.46819 16.2099 9.4643Z" stroke="white" stroke-miterlimit="10"></path> <path fill-rule="evenodd" clip-rule="evenodd" d="M8.44308 2.31392C9.17903 1.8433 10.0404 1.59246 10.9183 1.5946C12.0949 1.60251 13.2114 2.06198 14.0253 2.86867C14.8387 3.6749 15.2842 4.7622 15.2694 5.89297C15.2546 6.73696 14.9826 7.56249 14.4863 8.26533C14.1539 8.73596 13.7306 9.13769 13.2425 9.44906L14.7866 9.45699C14.9726 9.2628 15.1445 9.05465 15.3004 8.83391C15.9133 7.96601 16.2511 6.94308 16.2693 5.89452L16.2693 5.89247C16.288 4.48831 15.7346 3.14472 14.7346 2.15358C13.735 1.16291 12.3703 0.604191 10.9386 0.594862L10.9386 0.594858L10.9366 0.594853C9.86691 0.592016 8.81474 0.897427 7.91307 1.474C7.01126 2.05067 6.2997 2.87331 5.87058 3.83957C5.44139 4.80599 5.31475 5.87119 5.50736 6.89984C5.68329 7.83948 6.118 8.70825 6.76125 9.41578L8.30508 9.42371C8.07336 9.26959 7.85678 9.09344 7.65872 8.89715C7.05138 8.2952 6.64562 7.53099 6.49039 6.70198C6.33519 5.87307 6.43699 5.01442 6.78359 4.23398C7.13026 3.45337 7.707 2.7846 8.44308 2.31392Z" fill="white"></path> <path d="M20.1188 30.3091C20.1188 30.3091 20.1644 27.442 16.7464 27.4263L4.53905 27.3702C1.121 27.3546 1.07541 30.2217 1.07541 30.2217C1.0671 30.7409 1.25918 31.2424 1.61418 31.6285C1.96917 32.0145 2.46164 32.2573 2.99553 32.3097V32.3097L18.1326 32.3792C18.6681 32.3317 19.1682 32.0934 19.5354 31.7107C19.9026 31.328 20.1106 30.8283 20.1188 30.3091V30.3091Z" stroke="white" stroke-miterlimit="10"></path> <path fill-rule="evenodd" clip-rule="evenodd" d="M6.02195 12.4632C6.01887 12.3795 6.01501 12.3037 6.01094 12.2367L7.53045 12.2445L7.0161 12.2897C7.01798 12.3286 7.01972 12.3693 7.02129 12.4118C7.03564 12.8009 7.03478 13.3403 6.97322 13.9414C6.85244 15.1208 6.48791 16.641 5.43596 17.6783C4.59187 18.5106 3.72078 20.0344 3.24756 21.786C2.77531 23.5341 2.71987 25.432 3.41017 27.0276L3.41028 27.0278C3.46821 27.162 3.5584 27.298 3.68394 27.4338C3.28527 27.499 2.94751 27.6111 2.66137 27.7539C2.59618 27.6523 2.53916 27.5463 2.4914 27.4357C1.68347 25.5682 1.77329 23.423 2.2824 21.5385C2.79054 19.6576 3.73693 17.9597 4.73904 16.9715C5.53329 16.1884 5.86475 14.964 5.97842 13.854C6.0341 13.3103 6.03507 12.8188 6.02195 12.4632ZM18.6376 27.8407C18.6595 27.8007 18.6802 27.7599 18.6996 27.7185C19.5753 25.8459 19.4989 23.6345 19.0019 21.694C18.5052 19.7544 17.5653 17.9939 16.6002 16.9992L16.599 16.9981C15.8325 16.2133 15.5434 14.9878 15.4682 13.8765C15.4314 13.3322 15.4475 12.8403 15.4729 12.4844C15.4781 12.412 15.4836 12.3454 15.4892 12.2853L14.182 12.2786L14.4848 12.3062C14.4816 12.3449 14.4785 12.3854 14.4754 12.4276C14.4476 12.817 14.4298 13.3568 14.4705 13.9585C14.5503 15.1386 14.862 16.6606 15.8779 17.7012C16.6954 18.544 17.5673 20.137 18.0329 21.9552C18.4984 23.7727 18.5347 25.7238 17.7948 27.306C17.7629 27.3742 17.7223 27.4427 17.6726 27.5111C18.0493 27.5833 18.368 27.6981 18.6376 27.8407Z" fill="white"></path> </svg> 