<?xml version="1.0" encoding="UTF-8"?> <svg xmlns="http://www.w3.org/2000/svg" width="21" height="32" viewBox="0 0 21 32" fill="none"> <path d="M5.73022 28.3726L11.255 28.3726L11.3574 28.3726L16.8822 28.3726" fill="#101010"></path> <path d="M5.73022 28.3726L11.255 28.3726L11.3574 28.3726L16.8822 28.3726" stroke="#9D75CB" stroke-width="0.5" stroke-miterlimit="10"></path> <path d="M6.14537 5.34474C5.83146 5.75206 2.63842 8.85584 1.4664 9.88228C1.16495 10.1447 0.961434 10.4971 0.886542 10.8863C0.569907 12.5563 1.14313 13.1266 2.23855 13.5339C2.4919 13.6317 2.24713 13.9412 2.46941 14.5522C2.64509 15.039 3.31991 15.1632 3.94385 14.9595C5.39964 14.4809 5.2028 13.984 5.84066 14.2426C9.14632 15.5909 11.2291 11.5747 11.3306 13.2121C11.3378 13.3221 11.3127 13.4312 11.2584 13.5268C11.2041 13.6223 11.1227 13.7003 11.0237 13.7518C9.13454 14.7335 -0.841086 20.3321 5.90045 27.5213C7.2672 28.9795 16.9011 27.7351 16.9011 27.7351C16.9011 27.7351 22.1389 19.3077 18.5218 10.6277C16.2035 5.05554 12.6494 3.3448 11.3211 2.91711C9.75665 2.41204 9.23531 0.825525 8.20462 1.20433C6.45909 1.84586 7.34951 2.46295 7.81895 3.77249C7.81895 3.77249 6.41651 4.99445 6.14537 5.34474Z" stroke="#9D75CB" stroke-width="0.5" stroke-miterlimit="10"></path> <path d="M2.46011 10.6792C2.46011 10.6792 1.81038 11.1064 1.8195 11.5336Z" fill="#101010"></path> <path d="M2.46011 10.6792C2.46011 10.6792 1.81038 11.1064 1.8195 11.5336" stroke="#9D75CB" stroke-width="0.5" stroke-miterlimit="10" stroke-linecap="round"></path> <path d="M8.85363 7.51123C8.77823 7.49904 8.70711 7.46763 8.64755 7.42022C8.58799 7.37282 8.54214 7.31112 8.51467 7.24146C8.48721 7.17179 8.47914 7.09666 8.49127 7.02376C8.50341 6.95086 8.53532 6.8828 8.58374 6.82657C8.85544 6.5216 9.2805 6.20451 9.81906 6.34387C10.627 6.55593 10.0117 7.693 8.85363 7.51123Z" fill="#101010" stroke="#9D75CB" stroke-width="0.5" stroke-miterlimit="10" stroke-linecap="round"></path> <path d="M7.75776 19.1025C7.75776 19.1025 6.22024 20.3935 5.80796 22.332C5.53892 23.5922 6.30913 25.5594 6.30913 25.5594" fill="#101010"></path> <path d="M7.75776 19.1025C7.75776 19.1025 6.22024 20.3935 5.80796 22.332C5.53892 23.5922 6.30913 25.5594 6.30913 25.5594" stroke="#9D75CB" stroke-width="0.5" stroke-miterlimit="10" stroke-linecap="round"></path> <path d="M10.171 2.23145C10.171 2.23145 16.2412 6.44188 16.3481 13.3464C16.4183 17.8769 16.4261 26.3717 17.2331 27.1391C17.9168 27.7854 16.3953 29.8865 16.8155 29.0802" stroke="#9D75CB" stroke-width="0.5" stroke-miterlimit="10"></path> <path d="M19.3599 29.6915C19.3599 29.6915 19.32 27.2773 16.4357 27.2773L6.13485 27.2773C3.25061 27.2773 3.29057 29.6915 3.29057 29.6915C3.2973 30.1288 3.47291 30.5506 3.78308 30.8743C4.09324 31.1981 4.51564 31.4005 4.96769 31.4421V31.4421L17.7408 31.4421C18.1912 31.4001 18.6067 31.1975 18.906 30.8739C19.2054 30.5502 19.3672 30.1287 19.3599 29.6915V29.6915Z" fill="#101010" stroke="#9D75CB" stroke-width="0.5" stroke-miterlimit="10"></path> <path d="M7.42301 2.41406C7.42301 2.41406 6.40897 2.5898 6.41756 3.02709C6.42615 3.46438 7.11065 4.52899 7.11065 4.52899" stroke="#9D75CB" stroke-width="0.5" stroke-miterlimit="10"></path> </svg> 