<?xml version="1.0" encoding="UTF-8"?> <svg xmlns="http://www.w3.org/2000/svg" width="716" height="485" viewBox="0 0 716 485" fill="none"> <path d="M154.175 227.488C154.474 224.592 151.376 221.901 147.256 221.476C143.135 221.051 139.553 223.053 139.254 225.948C138.956 228.844 142.054 231.535 146.174 231.96C150.294 232.385 153.876 230.383 154.175 227.488Z" stroke="white" stroke-width="2" stroke-miterlimit="10"></path> <path d="M145.201 252.92C151.552 252.92 156.701 247.771 156.701 241.42C156.701 235.069 151.552 229.92 145.201 229.92C138.85 229.92 133.701 235.069 133.701 241.42C133.701 247.771 138.85 252.92 145.201 252.92Z" fill="#101010" stroke="white" stroke-width="2" stroke-miterlimit="10"></path> <path d="M84.1009 162.22L85.0989 162.157L84.9746 160.174L83.4559 161.456L84.1009 162.22ZM71.9709 144.22L70.9744 144.304L70.9745 144.305L71.9709 144.22ZM72.4709 129.13L73.4692 129.188L73.4694 129.185L72.4709 129.13ZM72.6409 127.73L71.6596 127.537L71.6582 127.544L72.6409 127.73ZM96.4309 41L95.5364 40.5528L95.5363 40.553L96.4309 41ZM170.431 23L170.144 22.0419L170.137 22.0442L170.431 23ZM256.431 1V0H256.312L256.196 0.0280213L256.431 1ZM301.431 13L301.557 12.008L301.494 12H301.431V13ZM482.931 35.5L482.84 36.4959L482.84 36.4959L482.931 35.5ZM627.931 74.5L628.326 73.5813L628.325 73.5809L627.931 74.5ZM685.151 87.5L685.323 86.5149L685.32 86.5143L685.151 87.5ZM696.031 94.38L695.215 94.9576L695.215 94.9586L696.031 94.38ZM698.931 219.48L699.34 220.392L699.341 220.392L698.931 219.48ZM618.011 203.48L617.788 204.455L617.79 204.455L618.011 203.48ZM596.351 201.42L596.316 200.421L596.312 200.421L596.351 201.42ZM503.671 190.64L503.471 191.62L503.479 191.621L503.671 190.64ZM502.221 190.29L502.518 189.335L502.509 189.332L502.5 189.33L502.221 190.29ZM472.861 181.76L473.14 180.8L473.136 180.799L472.861 181.76ZM471.041 181.12L470.653 182.042L470.654 182.042L471.041 181.12ZM403.431 152.7L403.04 153.621L403.043 153.622L403.431 152.7ZM402.431 152.26L401.985 153.155L402 153.162L402.015 153.169L402.431 152.26ZM338.901 122.49L339.309 121.577L339.309 121.577L338.901 122.49ZM300.901 102.49L301.454 101.657L301.452 101.656L300.901 102.49ZM224.901 192.49L225.701 193.09L225.703 193.087L224.901 192.49ZM199.451 244.63L198.604 244.099L198.604 244.099L199.451 244.63ZM198.061 246.52L197.301 245.869L197.3 245.871L198.061 246.52ZM161.361 239.39L162.33 239.145L162.328 239.135L161.361 239.39ZM160.891 233.64L159.896 233.536L159.895 233.545L160.891 233.64ZM207.891 144.49L206.956 144.134L206.956 144.135L207.891 144.49ZM132.891 219.49L131.974 219.091L131.972 219.096L132.891 219.49ZM122.101 254.77L123.054 255.072L123.062 255.046L123.069 255.019L122.101 254.77ZM116.891 263.49L116.173 262.794L116.158 262.809L116.144 262.825L116.891 263.49ZM94.8909 259.49L95.8611 259.248L95.861 259.248L94.8909 259.49ZM99.6709 235.17L100.621 235.482L100.624 235.474L99.6709 235.17ZM100.061 233.75L99.0873 233.521L99.0861 233.527L100.061 233.75ZM106.501 195.55L107.496 195.653L107.496 195.651L106.501 195.55ZM107.161 171.55L108.16 171.504L108.16 171.499L107.161 171.55ZM107.591 164.69L106.606 164.514L106.606 164.515L107.591 164.69ZM119.951 113.49L118.996 113.194L118.995 113.197L119.951 113.49ZM133.935 67.6689C134.034 67.1255 133.673 66.6049 133.13 66.5061C132.586 66.4073 132.066 66.7677 131.967 67.3111L133.935 67.6689ZM106.364 193.656C104.47 194.958 102.788 195.567 101.303 195.687C99.8279 195.806 98.4764 195.449 97.2172 194.701C94.6506 193.177 92.4648 190.024 90.6766 186.016C87.1171 178.039 85.4246 167.353 85.0989 162.157L83.1028 162.283C83.4372 167.617 85.1596 178.561 88.8502 186.831C90.6869 190.948 93.0849 194.573 96.1958 196.421C97.7754 197.359 99.5361 197.836 101.464 197.681C103.38 197.526 105.392 196.752 107.497 195.304L106.364 193.656ZM83.4559 161.456C80.9214 163.595 79.2666 163.989 78.2099 163.718C77.1549 163.447 76.2166 162.391 75.4364 160.368C74.6737 158.39 74.1723 155.769 73.8034 152.888C73.4356 150.015 73.2086 146.966 72.9673 144.135L70.9745 144.305C71.2131 147.104 71.4449 150.215 71.8196 153.142C72.1932 156.06 72.718 158.877 73.5704 161.087C74.4051 163.252 75.6706 165.131 77.7131 165.655C79.7539 166.179 82.0903 165.225 84.7458 162.984L83.4559 161.456ZM72.9673 144.136C72.8689 142.969 72.9488 139.957 73.0812 136.811C73.2121 133.7 73.3893 130.556 73.4692 129.188L71.4726 129.072C71.3924 130.444 71.2146 133.6 71.083 136.727C70.9529 139.818 70.8628 142.981 70.9744 144.304L72.9673 144.136ZM73.4694 129.185C73.4928 128.759 73.5443 128.335 73.6235 127.916L71.6582 127.544C71.5627 128.05 71.5006 128.561 71.4724 129.075L73.4694 129.185ZM73.6221 127.923C75.6643 117.522 79.3452 100.386 83.6446 83.593C87.9523 66.7676 92.8549 50.3929 97.3254 41.447L95.5363 40.553C90.9568 49.7171 86.0094 66.2924 81.7071 83.097C77.3965 99.9339 73.7075 117.108 71.6596 127.537L73.6221 127.923ZM97.3253 41.4472C98.0724 39.9531 99.6738 38.4862 102.086 37.0829C104.479 35.6906 107.564 34.4216 111.126 33.2723C118.246 30.9744 127.131 29.1977 135.868 27.8432C144.596 26.4899 153.14 25.5633 159.563 24.9575C162.773 24.6546 165.452 24.432 167.358 24.2763C168.31 24.1986 169.074 24.1371 169.612 24.0908C169.881 24.0677 170.1 24.0479 170.261 24.0313C170.341 24.023 170.413 24.0149 170.473 24.0069C170.501 24.0031 170.617 23.989 170.725 23.9558L170.137 22.0442C170.216 22.0197 170.272 22.016 170.209 22.0245C170.178 22.0286 170.128 22.0344 170.056 22.0418C169.913 22.0566 169.708 22.0752 169.441 22.0982C168.908 22.144 168.152 22.2048 167.196 22.2829C165.286 22.4389 162.598 22.6623 159.375 22.9663C152.931 23.5742 144.344 24.5051 135.561 25.8668C126.787 27.2273 117.78 29.0231 110.511 31.369C106.878 32.5415 103.645 33.8623 101.08 35.3541C98.5345 36.8351 96.5394 38.5469 95.5364 40.5528L97.3253 41.4472ZM170.717 23.9581C181.191 20.826 202.667 15.3318 221.548 10.6152C230.984 8.25818 239.763 6.09732 246.184 4.5257C249.395 3.7399 252.015 3.10143 253.833 2.65943C254.742 2.43842 255.45 2.26654 255.931 2.14992C256.172 2.09161 256.356 2.04711 256.479 2.0172C256.541 2.00224 256.588 1.99093 256.619 1.98336C256.635 1.97958 256.646 1.97673 256.654 1.97483C256.658 1.97388 256.661 1.97316 256.663 1.97269C256.664 1.97245 256.665 1.97227 256.665 1.97215C256.666 1.97204 256.666 1.97198 256.431 1C256.196 0.0280213 256.196 0.0280833 256.195 0.0282051C256.195 0.0283255 256.194 0.0285071 256.193 0.0287475C256.191 0.0292284 256.188 0.0299478 256.184 0.0309039C256.176 0.0328163 256.164 0.0356762 256.148 0.0394716C256.117 0.0470623 256.07 0.0583951 256.008 0.0733741C255.885 0.103332 255.701 0.147874 255.46 0.206233C254.979 0.32295 254.27 0.494935 253.361 0.716043C251.542 1.15826 248.92 1.79697 245.709 2.58305C239.286 4.15518 230.503 6.31682 221.064 8.67481C202.195 13.3882 180.671 18.894 170.144 22.0419L170.717 23.9581ZM256.431 2C269.484 2 277.354 4.9508 283.58 7.90352C289.759 10.8345 294.675 14 301.431 14V12C295.256 12 290.907 9.1655 284.437 6.09648C278.012 3.0492 269.848 -2.74181e-06 256.431 0V2ZM301.431 13C301.305 13.992 301.305 13.9921 301.307 13.9922C301.308 13.9924 301.31 13.9926 301.312 13.993C301.317 13.9936 301.325 13.9946 301.335 13.9958C301.355 13.9984 301.385 14.0022 301.424 14.0072C301.504 14.0173 301.622 14.0324 301.779 14.0523C302.091 14.0921 302.555 14.1511 303.162 14.2282C304.374 14.3824 306.155 14.6087 308.427 14.8973C312.971 15.4745 319.481 16.3007 327.344 17.2968C343.071 19.289 364.212 21.9609 385.869 24.6797C429.166 30.1153 474.568 35.7439 482.84 36.4959L483.021 34.5041C474.794 33.7561 429.446 28.1347 386.118 22.6953C364.462 19.9766 343.322 17.3048 327.596 15.3126C319.732 14.3165 313.223 13.4904 308.679 12.9132C306.407 12.6247 304.627 12.3984 303.414 12.2442C302.808 12.1671 302.344 12.1081 302.031 12.0683C301.875 12.0484 301.756 12.0333 301.677 12.0232C301.637 12.0182 301.607 12.0144 301.587 12.0118C301.577 12.0106 301.57 12.0096 301.565 12.009C301.562 12.0086 301.56 12.0084 301.559 12.0082C301.558 12.0081 301.557 12.008 301.431 13ZM482.84 36.4959C528.141 40.6137 560.813 48.8471 583.89 56.7893C607.011 64.7462 620.416 72.3674 627.537 75.4192L628.325 73.5809C621.445 70.6326 607.731 62.8788 584.541 54.8982C561.309 46.9029 528.48 38.6363 483.021 34.5041L482.84 36.4959ZM627.536 75.4187C633.144 77.8301 644.205 80.5253 655.442 82.8935C666.717 85.2697 678.286 87.3396 684.982 88.4857L685.32 86.5143C678.636 85.3704 667.095 83.3053 655.855 80.9365C644.577 78.5597 633.718 75.9 628.326 73.5813L627.536 75.4187ZM684.979 88.4851C689.112 89.2059 692.792 91.5328 695.215 94.9576L696.847 93.8025C694.119 89.9463 689.976 87.3264 685.323 86.5149L684.979 88.4851ZM695.215 94.9586C707.943 112.901 713.719 141.66 713.75 167.157C713.765 179.888 712.348 191.733 709.688 200.931C708.358 205.53 706.727 209.435 704.832 212.452C702.933 215.474 700.81 217.539 698.521 218.568L699.341 220.392C702.115 219.146 704.504 216.732 706.525 213.516C708.55 210.293 710.246 206.2 711.609 201.486C714.336 192.058 715.765 180.015 715.75 167.155C715.718 141.47 709.918 112.229 696.846 93.8014L695.215 94.9586ZM698.522 218.567C695.146 220.081 690.408 220.351 684.585 219.703C678.788 219.058 672.055 217.52 664.773 215.551C650.286 211.633 633.547 205.972 618.232 202.505L617.79 204.455C633.085 207.918 649.556 213.507 664.251 217.482C671.561 219.458 678.412 221.028 684.364 221.691C690.29 222.35 695.466 222.129 699.34 220.392L698.522 218.567ZM618.234 202.505C611.049 200.863 603.681 200.162 596.316 200.421L596.386 202.419C603.578 202.167 610.772 202.851 617.788 204.455L618.234 202.505ZM596.312 200.421C581.197 201.002 559.861 198.662 541.375 195.993C522.909 193.326 507.365 190.342 503.862 189.658L503.479 191.621C506.997 192.308 522.577 195.299 541.089 197.972C559.581 200.643 581.075 203.008 596.389 202.419L596.312 200.421ZM503.871 189.66C503.38 189.56 502.915 189.459 502.518 189.335L501.924 191.245C502.427 191.401 502.981 191.52 503.471 191.62L503.871 189.66ZM502.5 189.33L473.14 180.8L472.582 182.72L501.942 191.25L502.5 189.33ZM473.136 180.799C472.555 180.632 471.985 180.432 471.428 180.198L470.654 182.042C471.284 182.306 471.929 182.533 472.585 182.721L473.136 180.799ZM471.428 180.198L403.818 151.778L403.043 153.622L470.653 182.042L471.428 180.198ZM403.821 151.779C403.499 151.642 403.187 151.506 402.847 151.351L402.015 153.169C402.375 153.334 402.703 153.478 403.04 153.621L403.821 151.779ZM402.877 151.365C399.218 149.54 374.365 137.264 339.309 121.577L338.492 123.403C373.517 139.076 398.344 151.34 401.985 153.155L402.877 151.365ZM339.309 121.577C327.626 116.355 310.775 107.841 301.454 101.657L300.348 103.323C309.807 109.599 326.776 118.165 338.493 123.403L339.309 121.577ZM301.452 101.656C299.267 100.211 295.161 97.6357 291.306 96.4504C289.389 95.8611 287.385 95.5666 285.667 96.0599C283.845 96.5827 282.507 97.9419 281.931 100.247L283.871 100.733C284.295 99.0381 285.16 98.286 286.218 97.9823C287.379 97.6491 288.931 97.8126 290.718 98.3621C294.271 99.4543 298.165 101.88 300.349 103.324L301.452 101.656ZM281.931 100.247C277.692 117.202 264.231 138.813 251.266 156.902C244.798 165.926 238.48 174.037 233.545 180.207C228.638 186.342 225.04 190.628 224.099 191.893L225.703 193.087C226.622 191.852 230.131 187.677 235.107 181.456C240.055 175.27 246.396 167.129 252.891 158.068C265.851 139.987 279.53 118.098 283.871 100.733L281.931 100.247ZM224.101 191.89C222.704 193.753 221.025 197.009 219.163 200.994C217.29 205.004 215.188 209.848 212.955 214.937C208.475 225.147 203.467 236.343 198.604 244.099L200.298 245.161C205.255 237.257 210.321 225.918 214.787 215.741C217.026 210.636 219.115 205.823 220.975 201.841C222.848 197.834 224.447 194.762 225.701 193.09L224.101 191.89ZM198.604 244.099C198.214 244.72 197.779 245.312 197.301 245.869L198.82 247.171C199.362 246.538 199.856 245.867 200.298 245.161L198.604 244.099ZM197.3 245.871C196.156 247.211 193.9 249.7 191.023 252.111C188.134 254.532 184.689 256.814 181.168 257.822C177.691 258.818 174.185 258.567 170.981 255.996C167.717 253.377 164.628 248.244 162.33 239.145L160.391 239.635C162.734 248.911 165.97 254.54 169.729 257.556C173.548 260.62 177.764 260.878 181.719 259.745C185.63 258.625 189.329 256.14 192.308 253.644C195.299 251.137 197.635 248.559 198.821 247.169L197.3 245.871ZM162.328 239.135C161.863 237.375 161.714 235.547 161.886 233.735L159.895 233.545C159.7 235.592 159.869 237.657 160.394 239.645L162.328 239.135ZM161.885 233.744C162.489 227.973 165.174 220.86 169.064 213.043C172.944 205.245 177.976 196.837 183.195 188.493C188.398 180.174 193.818 171.874 198.4 164.401C202.983 156.927 206.804 150.163 208.826 144.845L206.956 144.135C205.008 149.257 201.28 155.879 196.695 163.356C192.109 170.835 186.742 179.051 181.499 187.432C176.272 195.788 171.198 204.264 167.273 212.152C163.358 220.021 160.538 227.397 159.896 233.536L161.885 233.744ZM208.825 144.846C209.308 143.578 209.483 141.573 209.444 139.208C209.403 136.802 209.137 133.894 208.654 130.738C207.689 124.428 205.849 117.053 203.169 110.626C200.509 104.248 196.938 98.5984 192.395 96.0045C190.085 94.6858 187.524 94.158 184.758 94.7319C182.015 95.3011 179.162 96.9342 176.2 99.7674L177.582 101.213C180.37 98.5458 182.901 97.1599 185.164 96.6902C187.405 96.2253 189.472 96.639 191.403 97.7414C195.341 99.9897 198.698 105.101 201.323 111.396C203.928 117.643 205.731 124.855 206.677 131.04C207.15 134.131 207.406 136.947 207.444 139.242C207.483 141.578 207.293 143.25 206.956 144.134L208.825 144.846ZM176.2 99.7674C164.619 110.845 159.018 119.718 155.953 128.019C152.911 136.256 152.384 143.941 150.906 152.316L152.876 152.664C154.398 144.039 154.87 136.724 157.829 128.711C160.764 120.762 166.163 112.135 177.582 101.213L176.2 99.7674ZM150.906 152.316C149.417 160.753 145.183 176.304 141.056 190.362C138.996 197.381 136.967 204.012 135.328 209.173C133.681 214.363 132.448 218.002 131.974 219.091L133.808 219.889C134.333 218.683 135.601 214.924 137.235 209.778C138.878 204.602 140.911 197.957 142.975 190.925C147.098 176.881 151.365 161.227 152.876 152.664L150.906 152.316ZM131.972 219.096C128.937 226.178 123.679 244.633 121.132 254.521L123.069 255.019C125.622 245.107 130.845 226.802 133.81 219.884L131.972 219.096ZM121.147 254.468C120.159 257.592 118.456 260.443 116.173 262.794L117.608 264.187C120.107 261.613 121.972 258.492 123.054 255.072L121.147 254.468ZM116.144 262.825C113.213 266.12 108.733 267.813 104.701 267.377C100.739 266.949 97.1656 264.471 95.8611 259.248L93.9207 259.732C95.4361 265.799 99.7227 268.851 104.486 269.366C109.178 269.872 114.289 267.92 117.638 264.155L116.144 262.825ZM95.861 259.248C95.5828 258.135 95.6209 256.338 95.9175 254.094C96.2094 251.887 96.7329 249.372 97.3374 246.892C98.5459 241.934 100.059 237.192 100.621 235.482L98.7208 234.858C98.1526 236.588 96.6209 241.386 95.3943 246.418C94.7813 248.933 94.2398 251.525 93.9348 253.832C93.6346 256.102 93.5439 258.225 93.9207 259.733L95.861 259.248ZM100.624 235.474C100.781 234.979 100.919 234.482 101.036 233.973L99.0861 233.527C98.9828 233.978 98.8603 234.421 98.7182 234.866L100.624 235.474ZM101.034 233.979C103.998 221.353 106.156 208.552 107.496 195.653L105.506 195.447C104.176 208.262 102.032 220.979 99.0873 233.521L101.034 233.979ZM107.496 195.651C108.307 187.629 108.529 179.558 108.16 171.504L106.162 171.596C106.527 179.552 106.308 187.525 105.506 195.449L107.496 195.651ZM108.16 171.499C108.047 169.279 108.186 167.054 108.575 164.865L106.606 164.515C106.191 166.852 106.042 169.23 106.162 171.601L108.16 171.499ZM108.575 164.866C111.655 147.606 115.773 130.547 120.907 113.783L118.995 113.197C113.837 130.038 109.7 147.175 106.606 164.514L108.575 164.866ZM120.906 113.786C129.897 84.8167 131.921 78.744 133.935 67.6689L131.967 67.3111C129.981 78.236 128.005 84.1634 118.996 113.194L120.906 113.786Z" fill="white"></path> <path d="M151.421 273.73L132.501 271.78L129.581 243.62C129.507 242.91 129.593 242.192 129.832 241.519C130.07 240.846 130.456 240.235 130.961 239.73C131.466 239.225 132.077 238.839 132.75 238.601C133.423 238.362 134.141 238.276 134.851 238.35L155.921 240.52C156.631 240.593 157.317 240.824 157.927 241.195C158.537 241.567 159.056 242.07 159.447 242.668C159.838 243.266 160.091 243.944 160.187 244.651C160.282 245.359 160.219 246.08 160.001 246.76L151.421 273.73Z" fill="#101010" stroke="white" stroke-width="2" stroke-miterlimit="10"></path> <path d="M156.635 266.75L128.713 263.869C126.939 263.686 125.352 264.976 125.169 266.751L125.168 266.76C124.985 268.535 126.275 270.122 128.049 270.305L155.971 273.185C157.745 273.368 159.332 272.078 159.515 270.304L159.516 270.294C159.699 268.52 158.409 266.933 156.635 266.75Z" fill="#101010" stroke="white" stroke-width="2" stroke-miterlimit="10"></path> <path d="M159.501 318.47C153.031 302.78 148.051 272.38 148.051 272.38L134.121 270.94C134.121 270.94 125.851 300.23 114.501 313.86C111.171 317.86 97.5008 339.19 102.321 354.2C106.751 368.08 156.831 374.15 163.951 361.57C171.731 347.86 161.821 324.07 159.501 318.47Z" stroke="white" stroke-width="2" stroke-miterlimit="10"></path> <path d="M164.205 272.088L120.218 267.55C117.125 267.231 114.359 269.48 114.04 272.573L113.964 273.309C113.645 276.402 115.894 279.168 118.987 279.487L162.973 284.025C166.066 284.344 168.832 282.095 169.151 279.002L169.227 278.266C169.546 275.173 167.297 272.407 164.205 272.088Z" fill="#101010" stroke="white" stroke-width="2" stroke-miterlimit="10"></path> <path d="M170.701 373.46C170.701 373.46 171.951 361.37 158.021 359.93L108.291 354.8C94.3609 353.36 93.1109 365.45 93.1109 365.45C92.8866 367.64 93.4867 369.835 94.794 371.607C96.1013 373.378 98.022 374.599 100.181 375.03L161.861 381.4V381.35C164.05 381.365 166.167 380.566 167.801 379.108C169.434 377.65 170.468 375.637 170.701 373.46Z" fill="#101010" stroke="white" stroke-width="2" stroke-miterlimit="10"></path> <path d="M135.681 300.86C135.681 300.86 128.071 316.16 122.621 325.15C119.621 330.15 115.111 339.45 115.621 344.53" stroke="white" stroke-width="2" stroke-miterlimit="10" stroke-linecap="round"></path> <path d="M105.875 72.8102C106.057 72.2889 105.782 71.7184 105.261 71.5361C104.74 71.3537 104.169 71.6285 103.987 72.1498L105.875 72.8102ZM84.9294 163.532C85.8735 145.446 91.0982 122.783 96.1074 104.596C98.6092 95.5116 101.052 87.5625 102.869 81.8848C103.778 79.0462 104.53 76.7758 105.054 75.2159C105.316 74.436 105.522 73.8337 105.662 73.4268C105.731 73.2234 105.785 73.0688 105.821 72.9653C105.839 72.9135 105.852 72.8745 105.861 72.8486C105.866 72.8356 105.869 72.8259 105.871 72.8195C105.873 72.8163 105.873 72.8139 105.874 72.8124C105.874 72.8116 105.874 72.811 105.875 72.8107C105.875 72.8103 105.875 72.8102 104.931 72.48C103.987 72.1498 103.987 72.1501 103.987 72.1506C103.986 72.151 103.986 72.1517 103.986 72.1526C103.985 72.1544 103.984 72.157 103.983 72.1604C103.981 72.1673 103.977 72.1774 103.973 72.1908C103.963 72.2177 103.949 72.2575 103.931 72.3102C103.895 72.4155 103.841 72.572 103.77 72.7773C103.629 73.188 103.422 73.7943 103.159 74.5784C102.631 76.1467 101.876 78.4263 100.964 81.2752C99.1409 86.9725 96.6899 94.9484 94.1792 104.064C89.1633 122.277 83.8881 145.114 82.9321 163.428L84.9294 163.532Z" fill="white"></path> </svg> 