<?xml version="1.0" encoding="UTF-8"?> <svg xmlns="http://www.w3.org/2000/svg" width="21" height="33" viewBox="0 0 21 33" fill="none"> <path d="M16.2098 8.92499L5.42298 8.8696C4.66449 8.86571 4.04043 9.45584 4.0291 10.1877L4.0264 10.3619C4.01506 11.0938 4.62075 11.6902 5.37923 11.6941L16.166 11.7495C16.9245 11.7534 17.5486 11.1632 17.5599 10.4314L17.5626 10.2572C17.574 9.52534 16.9683 8.92888 16.2098 8.92499Z" stroke="#9D75CB" stroke-miterlimit="10"></path> <path fill-rule="evenodd" clip-rule="evenodd" d="M8.44296 1.77458C9.17891 1.30397 10.0403 1.05312 10.9182 1.05526C12.0948 1.06318 13.2112 1.52264 14.0252 2.32933C14.8386 3.13556 15.284 4.22287 15.2693 5.35363C15.2544 6.19762 14.9825 7.02315 14.4861 7.72599C14.1538 8.19662 13.7305 8.59835 13.2424 8.90973L14.7864 8.91765C14.9725 8.72346 15.1444 8.51531 15.3002 8.29457C15.9132 7.42668 16.251 6.40374 16.2692 5.35518L16.2692 5.35313C16.2878 3.94898 15.7345 2.60538 14.7345 1.61424C13.7349 0.623572 12.3702 0.0648536 10.9384 0.0555243L10.9384 0.0555206L10.9365 0.0555155C9.86678 0.0526791 8.81462 0.35809 7.91295 0.934666C7.01113 1.51134 6.29958 2.33398 5.87046 3.30023C5.44127 4.26665 5.31463 5.33185 5.50723 6.36051C5.68317 7.30014 6.11788 8.16891 6.76113 8.87645L8.30495 8.88437C8.07324 8.73025 7.85665 8.55411 7.6586 8.35781C7.05126 7.75586 6.64549 6.99166 6.49027 6.16264C6.33507 5.33374 6.43687 4.47508 6.78347 3.69465C7.13014 2.91404 7.70688 2.24527 8.44296 1.77458Z" fill="#9D75CB"></path> <path d="M20.1187 29.7698C20.1187 29.7698 20.1643 26.9027 16.7463 26.887L4.53896 26.8309C1.12091 26.8152 1.07532 29.6824 1.07532 29.6824C1.06701 30.2016 1.25908 30.7031 1.61408 31.0892C1.96908 31.4752 2.46155 31.718 2.99544 31.7704V31.7704L18.1325 31.8399C18.668 31.7924 19.1681 31.5541 19.5353 31.1714C19.9025 30.7887 20.1105 30.289 20.1187 29.7698V29.7698Z" stroke="#9D75CB" stroke-miterlimit="10"></path> <path fill-rule="evenodd" clip-rule="evenodd" d="M6.02183 11.9239C6.01875 11.8402 6.01489 11.7643 6.01082 11.6973L7.53033 11.7051L7.01598 11.7504C7.01785 11.7893 7.0196 11.83 7.02117 11.8724C7.03552 12.2615 7.03465 12.801 6.9731 13.4021C6.85232 14.5815 6.48779 16.1017 5.43583 17.1389C4.59174 17.9712 3.72066 19.4951 3.24744 21.2467C2.77519 22.9947 2.71975 24.8927 3.41005 26.4883L3.41015 26.4885C3.46808 26.6226 3.55827 26.7586 3.68382 26.8944C3.28514 26.9597 2.94739 27.0718 2.66125 27.2146C2.59606 27.1129 2.53904 27.0069 2.49128 26.8964C1.68334 25.0289 1.77316 22.8837 2.28228 20.9992C2.79042 19.1183 3.73681 17.4203 4.73892 16.4322C5.53317 15.6491 5.86463 14.4247 5.9783 13.3147C6.03398 12.771 6.03495 12.2795 6.02183 11.9239ZM18.6375 27.3014C18.6594 27.2613 18.6801 27.2206 18.6995 27.1791C19.5752 25.3066 19.4988 23.0952 19.0018 21.1546C18.5051 19.2151 17.5652 17.4546 16.6 16.4599L16.5989 16.4587C15.8324 15.674 15.5433 14.4485 15.4681 13.3371C15.4313 12.7929 15.4473 12.301 15.4728 11.945C15.478 11.8726 15.4835 11.806 15.4891 11.746L14.1819 11.7393L14.4847 11.7669C14.4815 11.8056 14.4783 11.8461 14.4753 11.8883C14.4475 12.2777 14.4297 12.8175 14.4704 13.4191C14.5502 14.5992 14.8618 16.1213 15.8778 17.1619C16.6953 18.0046 17.5672 19.5976 18.0328 21.4159C18.4983 23.2334 18.5346 25.1845 17.7947 26.7666C17.7628 26.8349 17.7222 26.9033 17.6725 26.9717C18.0492 27.044 18.3679 27.1587 18.6375 27.3014Z" fill="#9D75CB"></path> </svg> 