<?xml version="1.0" encoding="UTF-8"?> <svg xmlns="http://www.w3.org/2000/svg" width="18" height="34" viewBox="0 0 18 34" fill="none"> <path d="M10.9218 2.55365L9.7646 2.55427L9.78748 1.43008C9.78943 1.33415 9.75208 1.24218 9.68364 1.17438C9.61519 1.10659 9.52127 1.06853 9.42252 1.06859L9.0019 1.06881C8.90316 1.06886 8.80768 1.10702 8.73648 1.17489C8.66527 1.24276 8.62417 1.33478 8.62222 1.4307L8.59934 2.55489L7.44213 2.5555C7.39221 2.55525 7.34255 2.56475 7.2961 2.58344C7.24964 2.60214 7.20734 2.62964 7.17171 2.66431C7.13609 2.69899 7.10786 2.74013 7.08871 2.78528C7.06956 2.83044 7.05987 2.87869 7.06024 2.92717L7.05188 3.33774C7.05091 3.38541 7.05965 3.43259 7.07759 3.4766C7.09553 3.5206 7.12232 3.56054 7.15642 3.59413C7.19053 3.62773 7.23127 3.65431 7.2763 3.67234C7.32134 3.69038 7.36979 3.69952 7.41885 3.69924L8.57607 3.69862L8.55319 4.82281C8.55124 4.91873 8.58859 5.01071 8.65703 5.0785C8.72548 5.1463 8.8194 5.18435 8.91815 5.1843L9.33877 5.18408C9.43751 5.18402 9.53299 5.14587 9.6042 5.078C9.6754 5.01013 9.7165 4.91811 9.71845 4.82218L9.74153 3.68823L10.8987 3.68761C10.9975 3.68756 11.093 3.6494 11.1642 3.58153C11.2354 3.51366 11.2765 3.42164 11.2784 3.32572L11.2866 2.92492C11.2889 2.87661 11.2812 2.82852 11.2641 2.78352C11.2469 2.73851 11.2205 2.69749 11.1865 2.66288C11.1525 2.62827 11.1115 2.60077 11.0661 2.58201C11.0206 2.56325 10.9716 2.55361 10.9218 2.55365V2.55365Z" fill="#101010" stroke="#9D75CB" stroke-width="0.4" stroke-miterlimit="10"></path> <path d="M9.08394 9.30693C10.3621 9.30625 11.4188 8.29909 11.4441 7.05738C11.4693 5.81566 10.4536 4.80961 9.17545 4.81029C7.89726 4.81097 6.8406 5.81813 6.81533 7.05985C6.79006 8.30156 7.80575 9.30762 9.08394 9.30693Z" fill="#101010" stroke="#9D75CB" stroke-width="0.4" stroke-miterlimit="10"></path> <path d="M10.9567 12.3069L7.12935 12.3089L6.07341 6.88499C6.04651 6.74817 6.05153 6.60661 6.0881 6.47066C6.12467 6.33471 6.19188 6.20779 6.28482 6.09916C6.37775 5.99053 6.49407 5.90295 6.62528 5.84279C6.75649 5.78263 6.89929 5.75142 7.04324 5.75144L11.3097 5.74916C11.4537 5.74906 11.5953 5.78014 11.7241 5.84014C11.853 5.90015 11.9658 5.98757 12.0545 6.09604C12.1431 6.20452 12.2054 6.33132 12.2367 6.46723C12.268 6.60313 12.2676 6.74473 12.2355 6.8817L10.9567 12.3069Z" fill="#101010" stroke="#9D75CB" stroke-width="0.4" stroke-miterlimit="10"></path> <path d="M11.889 11.1066L6.29977 11.0894C5.94457 11.0883 5.6518 11.3623 5.64586 11.7013L5.64583 11.7033C5.63988 12.0423 5.92302 12.3181 6.27822 12.3192L11.8675 12.3364C12.2227 12.3375 12.5155 12.0635 12.5214 11.7244L12.5214 11.7225C12.5274 11.3835 12.2442 11.1077 11.889 11.1066Z" fill="#101010" stroke="#9D75CB" stroke-width="0.4" stroke-miterlimit="10"></path> <path d="M13.4888 21.2284C11.9304 18.2968 10.4043 12.4645 10.4043 12.4645L7.57345 12.4655C7.57345 12.4655 6.39694 18.3537 4.34291 21.2375C3.73942 22.0836 1.34659 26.5238 2.56121 29.3574C3.68916 31.977 13.8829 32.1501 15.1082 29.5492C16.4455 26.7148 14.048 22.2762 13.4888 21.2284Z" fill="#101010" stroke="#9D75CB" stroke-width="0.4" stroke-miterlimit="10"></path> <path d="M13.4931 12.0291L4.68373 12.0063C4.06429 12.0047 3.55353 12.4839 3.54291 13.0767L3.54038 13.2177C3.52977 13.8104 4.02331 14.2922 4.64275 14.2939L13.4521 14.3167C14.0716 14.3183 14.5823 13.8391 14.593 13.2463L14.5955 13.1053C14.6061 12.5126 14.1126 12.0308 13.4931 12.0291Z" fill="#101010" stroke="#9D75CB" stroke-width="0.4" stroke-miterlimit="10"></path> <path d="M16.6132 31.8554C16.6132 31.8554 16.6561 29.5292 13.8647 29.524L3.89541 29.5052C1.104 29.5 1.06103 31.8261 1.06103 31.8261C1.0532 32.2474 1.20906 32.6538 1.49821 32.9662C1.78735 33.2786 2.18905 33.4745 2.62496 33.5158V33.5158L14.9869 33.539C15.4243 33.4994 15.8332 33.305 16.1339 32.9937C16.4346 32.6824 16.6054 32.2766 16.6132 31.8554V31.8554Z" fill="#101010" stroke="#9D75CB" stroke-width="0.4" stroke-miterlimit="10"></path> <path d="M10.3661 18.3696C10.3661 18.3696 11.5328 21.5258 12.4173 23.4C12.9087 24.4397 13.5878 26.359 13.3644 27.3447" fill="#101010"></path> <path d="M10.3661 18.3696C10.3661 18.3696 11.5328 21.5258 12.4173 23.4C12.9087 24.4397 13.5878 26.359 13.3644 27.3447" stroke="#9D75CB" stroke-width="0.4" stroke-miterlimit="10" stroke-linecap="round"></path> </svg> 