<?xml version="1.0" encoding="UTF-8"?> <svg xmlns="http://www.w3.org/2000/svg" width="18" height="31" viewBox="0 0 18 31" fill="none"> <path d="M13.04 8.32659L8.68693 8.31964L8.58328 8.31948L4.23019 8.31253L3.31088 27.0194L8.90771 27.0283L9.01135 27.0285L14.6082 27.0374L13.04 8.32659Z" fill="#101010" stroke="#9D75CB" stroke-width="0.5" stroke-miterlimit="10"></path> <path d="M16.858 28.6369C16.858 28.6369 16.8193 26.2268 13.9587 26.2272L3.74231 26.2286C0.881587 26.2211 0.920362 28.6391 0.920362 28.6391C0.927773 29.0754 1.10209 29.4959 1.40939 29.8189C1.7167 30.1419 2.13503 30.3442 2.58301 30.3864L15.2514 30.3847C15.698 30.3423 16.1099 30.1399 16.4068 29.8168C16.7037 29.4938 16.8646 29.0732 16.858 28.6369V28.6369Z" fill="#101010" stroke="#9D75CB" stroke-width="0.5" stroke-miterlimit="10"></path> <path d="M13.6697 0.32226C13.6697 0.32226 12.3933 0.32024 12.4003 0.722849C12.4212 1.93068 12.1142 2.33279 11.4576 2.33175C10.8009 2.33071 9.96571 2.32939 10.0492 0.870104C10.0701 0.540006 9.6743 0.315938 9.33776 0.315406L7.71661 0.312841C7.37802 0.312305 6.992 0.535136 7.02235 0.865315C7.15642 2.32494 6.32122 2.32362 5.66456 2.32258C5.00789 2.32154 4.68694 1.91844 4.666 0.710612C4.65902 0.308003 3.38262 0.305984 3.38262 0.305984C3.00165 0.305381 2.63886 0.453264 2.37405 0.717102C2.10925 0.980939 1.96412 1.33912 1.9706 1.71284L2.06244 7.00916C2.06892 7.38289 2.22647 7.74154 2.50044 8.00623C2.77441 8.27092 3.14236 8.41996 3.52333 8.42057L13.8104 8.43684C14.1914 8.43745 14.5542 8.28956 14.819 8.02572C15.0838 7.76189 15.2289 7.40371 15.2224 7.02998L15.1306 1.73366C15.1241 1.35994 14.9665 1.00128 14.6926 0.736592C14.4186 0.471902 14.0507 0.322863 13.6697 0.32226Z" fill="#101010" stroke="#9D75CB" stroke-width="0.5" stroke-miterlimit="10"></path> <path d="M10.8643 10.894L11.8935 24.0009" stroke="#9D75CB" stroke-width="0.5" stroke-miterlimit="10" stroke-linecap="round"></path> <path d="M3.72998 2.33152C3.72998 2.33152 3.13003 6.8196 3.78643 7.04368Z" fill="#101010"></path> <path d="M3.72998 2.33152C3.72998 2.33152 3.13003 6.8196 3.78643 7.04368" stroke="#9D75CB" stroke-width="0.5" stroke-miterlimit="10" stroke-linecap="round"></path> </svg> 