<?xml version="1.0" encoding="UTF-8"?> <svg xmlns="http://www.w3.org/2000/svg" width="18" height="33" viewBox="0 0 18 33" fill="none"> <path d="M9.17029 4.08923C10.02 4.09149 10.7007 3.41658 10.6905 2.58177C10.6804 1.74696 9.98325 1.06837 9.13348 1.06611C8.28372 1.06385 7.60309 1.73876 7.61325 2.57357C7.62341 3.40838 8.32052 4.08697 9.17029 4.08923Z" fill="#101010" stroke="#9D75CB" stroke-width="0.4" stroke-miterlimit="10"></path> <path d="M13.1704 7.07027C13.1831 8.11556 12.7726 9.11692 12.0293 9.85405C11.2859 10.5912 10.2705 11.0037 9.20646 11.0009C8.14244 10.998 7.11694 10.5801 6.35556 9.83894C5.59419 9.0978 5.1593 8.09419 5.14658 7.0489C5.12008 4.87252 6.81437 2.21261 9.02974 2.21851C11.2451 2.22441 13.1439 4.89388 13.1704 7.07027Z" fill="#101010" stroke="#9D75CB" stroke-width="0.4" stroke-miterlimit="10"></path> <path d="M17.2402 30.2962C17.2402 30.2962 17.213 27.8892 14.3571 27.885L4.15722 27.8699C1.30127 27.8657 1.3285 30.2728 1.3285 30.2728C1.33343 30.7084 1.50539 31.1287 1.8108 31.4515C2.11622 31.7743 2.53315 31.9765 2.9802 32.0186V32.0186L15.628 32.0372C16.0741 31.9965 16.4865 31.7955 16.7846 31.4736C17.0827 31.1517 17.2452 30.7319 17.2402 30.2962V30.2962Z" stroke="#9D75CB" stroke-width="0.4" stroke-miterlimit="10"></path> <path d="M17.2402 30.2962C17.2402 30.2962 17.213 27.8892 14.3571 27.885L4.15722 27.8699C1.30127 27.8657 1.3285 30.2728 1.3285 30.2728C1.33343 30.7084 1.50539 31.1287 1.8108 31.4515C2.11622 31.7743 2.53315 31.9765 2.9802 32.0186L15.628 32.0372C16.0741 31.9965 16.4865 31.7955 16.7846 31.4736C17.0827 31.1517 17.2452 30.7319 17.2402 30.2962Z" fill="#101010" stroke="#9D75CB" stroke-width="0.4" stroke-miterlimit="10"></path> <path fill-rule="evenodd" clip-rule="evenodd" d="M12.1094 10.6843C12.1094 10.6843 11.5656 16.744 13.7936 19.4167C15.1865 21.0972 16.9838 25.074 15.7166 27.9881C15.7001 28.0261 15.6818 28.0635 15.6616 28.1004C15.3106 27.9673 14.8815 27.8855 14.3569 27.8847L4.1571 27.8696C3.74312 27.869 3.38971 27.9191 3.08802 28.0051C3.03009 27.9236 2.98098 27.8395 2.94132 27.7528C1.61157 24.8319 3.20444 21.1145 4.48616 19.3965C6.62436 16.5291 6.34505 10.4672 6.34505 10.4672L12.1094 10.6843Z" fill="#101010"></path> <path d="M13.7936 19.4167L13.9467 19.2907L13.9463 19.2903L13.7936 19.4167ZM12.1094 10.6843L12.3086 10.7057L12.3277 10.4925L12.1133 10.4844L12.1094 10.6843ZM15.7166 27.9881L15.533 27.9056L15.5329 27.9058L15.7166 27.9881ZM15.6616 28.1004L15.5937 28.2872L15.7555 28.3486L15.8375 28.1988L15.6616 28.1004ZM14.3569 27.8847L14.3536 27.6847L14.3536 27.6847L14.3569 27.8847ZM4.1571 27.8696L4.1538 27.6696L4.1538 27.6696L4.1571 27.8696ZM3.08802 28.0051L2.92565 28.119L3.00919 28.2366L3.14608 28.1975L3.08802 28.0051ZM2.94132 27.7528L2.75952 27.8329L2.75968 27.8332L2.94132 27.7528ZM4.48616 19.3965L4.64726 19.5179L4.64729 19.5179L4.48616 19.3965ZM6.34505 10.4672L6.34899 10.2674L6.1354 10.2593L6.14524 10.4728L6.34505 10.4672ZM13.9463 19.2903C12.8768 18.0073 12.4577 15.8822 12.3154 14.0364C12.2448 13.1206 12.2431 12.2867 12.2592 11.6818C12.2672 11.3794 12.2796 11.1346 12.29 10.9657C12.2952 10.8813 12.2999 10.8159 12.3033 10.7718C12.3049 10.7497 12.3063 10.733 12.3072 10.7219C12.3077 10.7163 12.308 10.7122 12.3083 10.7095C12.3084 10.7081 12.3085 10.7071 12.3085 10.7065C12.3086 10.7062 12.3086 10.7059 12.3086 10.7058C12.3086 10.7058 12.3086 10.7057 12.3086 10.7057C12.3086 10.7057 12.3086 10.7057 12.1094 10.6843C11.9102 10.6629 11.9101 10.6629 11.9101 10.663C11.9101 10.6631 11.9101 10.6632 11.9101 10.6633C11.9101 10.6635 11.9101 10.6639 11.91 10.6643C11.91 10.6651 11.9098 10.6663 11.9097 10.6679C11.9094 10.671 11.909 10.6756 11.9085 10.6816C11.9076 10.6936 11.9061 10.7112 11.9044 10.7342C11.9009 10.7802 11.896 10.8475 11.8907 10.934C11.8801 11.107 11.8674 11.3565 11.8593 11.664C11.843 12.2787 11.8446 13.1269 11.9165 14.06C12.0593 15.9123 12.4824 18.1534 13.6409 19.5431L13.9463 19.2903ZM15.9003 28.0706C16.5599 26.5537 16.4162 24.7777 15.9443 23.1861C15.472 21.5929 14.6618 20.1536 13.9467 19.2907L13.6405 19.5426C14.3183 20.3603 15.1033 21.7497 15.561 23.2934C16.0192 24.8389 16.1405 26.5084 15.533 27.9056L15.9003 28.0706ZM15.8375 28.1988C15.8604 28.1568 15.8814 28.1141 15.9004 28.0704L15.5329 27.9058C15.5188 27.9381 15.5031 27.9702 15.4858 28.0019L15.8375 28.1988ZM15.7296 27.9135C15.3526 27.7706 14.8989 27.6855 14.3536 27.6847L14.3602 28.0847C14.864 28.0854 15.2686 28.164 15.5937 28.2872L15.7296 27.9135ZM14.3536 27.6847L4.1538 27.6696L4.16041 28.0696L14.3602 28.0847L14.3536 27.6847ZM4.1538 27.6696C3.7235 27.669 3.35145 27.721 3.02997 27.8127L3.14608 28.1975C3.42797 28.1171 3.76273 28.069 4.16041 28.0696L4.1538 27.6696ZM2.75968 27.8332C2.80509 27.9325 2.86082 28.0277 2.92565 28.119L3.25039 27.8913C3.19935 27.8194 3.15688 27.7464 3.12297 27.6723L2.75968 27.8332ZM4.32505 19.2751C3.66988 20.1533 2.93971 21.535 2.54078 23.07C2.14217 24.6038 2.06838 26.3148 2.75952 27.8329L3.12312 27.6727C2.48451 26.2699 2.54228 24.6617 2.92809 23.1771C3.31359 21.6937 4.02072 20.3577 4.64726 19.5179L4.32505 19.2751ZM6.34505 10.4672C6.14524 10.4728 6.14524 10.4728 6.14524 10.4728C6.14524 10.4729 6.14524 10.4729 6.14524 10.473C6.14525 10.4731 6.14526 10.4733 6.14527 10.4737C6.1453 10.4743 6.14535 10.4753 6.1454 10.4767C6.14552 10.4794 6.1457 10.4835 6.14592 10.4891C6.14637 10.5003 6.14701 10.517 6.14775 10.5392C6.14925 10.5834 6.15118 10.649 6.15289 10.7337C6.15631 10.9032 6.15886 11.1491 6.15527 11.4532C6.1481 12.0619 6.11642 12.9028 6.0185 13.8321C5.82152 15.7015 5.36022 17.8869 4.32503 19.2751L4.64729 19.5179C5.75029 18.0387 6.21844 15.7594 6.41636 13.8811C6.51589 12.9365 6.54802 12.0827 6.55529 11.4651C6.55893 11.1562 6.55636 10.9061 6.55286 10.7329C6.55111 10.6462 6.54913 10.5788 6.54758 10.5328C6.5468 10.5099 6.54613 10.4923 6.54565 10.4803C6.54541 10.4743 6.54522 10.4697 6.54508 10.4666C6.54502 10.465 6.54496 10.4638 6.54493 10.463C6.54491 10.4626 6.54489 10.4623 6.54488 10.462C6.54488 10.4619 6.54487 10.4618 6.54487 10.4618C6.54487 10.4617 6.54486 10.4616 6.34505 10.4672ZM12.1133 10.4844L6.34899 10.2674L6.34111 10.6671L12.1054 10.8841L12.1133 10.4844Z" fill="#9D75CB"></path> <path d="M6.50839 7.68725C6.25908 6.98455 6.30322 6.21753 6.6311 5.55483C6.95898 4.89212 7.54376 4.38796 8.25688 4.15321" fill="#101010"></path> <path d="M6.50839 7.68725C6.25908 6.98455 6.30322 6.21753 6.6311 5.55483C6.95898 4.89212 7.54376 4.38796 8.25688 4.15321" stroke="#9D75CB" stroke-width="0.4" stroke-miterlimit="10" stroke-linecap="round"></path> <path d="M13.6796 9.96267L4.66299 9.9529C4.02898 9.95222 3.5205 10.4489 3.52726 11.0623L3.52887 11.2082C3.53563 11.8216 4.05508 12.3194 4.68909 12.3201L13.7057 12.3299C14.3397 12.3306 14.8482 11.8339 14.8414 11.2205L14.8398 11.0745C14.8331 10.4611 14.3136 9.96336 13.6796 9.96267Z" fill="#101010" stroke="#9D75CB" stroke-width="0.4" stroke-miterlimit="10"></path> <path d="M14.5412 25.714C15.1361 23.4874 13.2464 21.2958 12.0764 20.0719C10.9987 18.9495 10.8574 16.8145 10.8574 16.8145" fill="#101010"></path> <path d="M14.5412 25.714C15.1361 23.4874 13.2464 21.2958 12.0764 20.0719C10.9987 18.9495 10.8574 16.8145 10.8574 16.8145" stroke="#9D75CB" stroke-width="0.4" stroke-miterlimit="10" stroke-linecap="round"></path> </svg> 