<?xml version="1.0" encoding="UTF-8"?> <svg xmlns="http://www.w3.org/2000/svg" width="125" height="144" viewBox="0 0 125 144" fill="none"> <path d="M11.78 25.9101C11.38 28.4301 4.77998 49.1501 2.08998 56.2701C1.39058 58.1039 1.30981 60.1161 1.85998 62.0001C4.21998 70.0001 7.85998 71.2301 13.44 70.6301C14.73 70.4901 14.38 72.4001 16.67 74.5801C18.49 76.3201 21.61 75.3501 23.79 73.0601C28.91 67.6901 26.95 65.9701 30.21 65.6801C47.13 64.1901 47.03 41.9201 51.08 48.8601C51.3562 49.3268 51.4935 49.8626 51.4758 50.4046C51.458 50.9467 51.2861 51.4724 50.98 51.9201C45.13 60.4201 15.48 107.28 59.81 123.69C68.8 127 106.69 100 106.69 100C106.69 100 110.12 51.3201 75.69 21.3501C53.61 2.15008 34.82 2.61008 28.27 3.70008C20.56 5.00008 14.85 -0.789936 11.34 3.18006C5.39998 9.90006 10.51 10.6101 15.4 15.2901C15.36 15.2601 12.12 23.7701 11.78 25.9101Z" stroke="white" stroke-width="2" stroke-miterlimit="10"></path> <path d="M6.99997 57.7501C6.99997 57.7501 5.19997 61.0901 6.18997 62.9401L6.99997 57.7501Z" fill="white"></path> <path d="M6.99997 57.7501C6.99997 57.7501 5.19997 61.0901 6.18997 62.9401" stroke="white" stroke-width="2" stroke-miterlimit="10" stroke-linecap="round"></path> <path d="M27.91 29.9401C27.5619 30.0586 27.1884 30.0819 26.8283 30.0074C26.4682 29.9329 26.1346 29.7634 25.8622 29.5165C25.5897 29.2695 25.3883 28.9541 25.2789 28.6031C25.1695 28.252 25.156 27.8781 25.24 27.52C25.71 25.52 26.81 23.21 29.37 22.62C33.3 21.73 33.22 28.1501 27.91 29.9401Z" stroke="white" stroke-width="2" stroke-miterlimit="10" stroke-linecap="round"></path> <path d="M48.46 82.1201C48.46 82.1201 44.92 91.1201 47.46 100.47C49.13 106.54 56.7 113.4 56.7 113.4" stroke="white" stroke-width="2" stroke-miterlimit="10" stroke-linecap="round"></path> <path d="M22.49 3.66006C22.49 3.66006 57 8.61005 72.77 38.3C83.12 57.81 102.01 94.6501 107.07 96.2001C111.33 97.5101 109.69 109.96 109.64 105.54" stroke="white" stroke-width="2" stroke-miterlimit="10"></path> <path d="M122.07 101.7C122.07 101.7 116.37 91.0001 104 97.5301L59.84 121C47.47 127.56 53.17 138.3 53.17 138.3C54.2048 140.24 55.9258 141.725 57.9967 142.465C60.0677 143.205 62.34 143.146 64.37 142.3L119.14 113.24C120.978 112.027 122.297 110.172 122.839 108.037C123.381 105.903 123.107 103.643 122.07 101.7Z" fill="#101010" stroke="white" stroke-width="2" stroke-miterlimit="10"></path> <path d="M10.27 11.05C10.27 11.05 6.39996 14.0501 7.37996 15.9301C8.35996 17.8101 13.61 20.9301 13.61 20.9301" stroke="white" stroke-width="2" stroke-miterlimit="10"></path> </svg> 