<?xml version="1.0" encoding="UTF-8"?> <svg xmlns="http://www.w3.org/2000/svg" width="395" height="83" viewBox="0 0 395 83" fill="none"> <path d="M17.0839 79.8H17.6839V81H0.403906V79.8H1.00391C1.64391 79.8 2.20391 79.6 2.68391 79.2C3.16391 78.72 3.56391 78.16 3.88391 77.52C4.28391 76.88 4.56391 76.2 4.72391 75.48C4.88391 74.76 4.96391 74.08 4.96391 73.44V9.23999C4.96391 8.68 4.88391 8.04 4.72391 7.32C4.56391 6.6 4.28391 5.92 3.88391 5.27999C3.56391 4.63999 3.16391 4.11999 2.68391 3.71999C2.20391 3.24 1.64391 3 1.00391 3H0.403906V1.8H46.6039V14.52H45.4039C45.4039 11.64 44.7639 9.52 43.4839 8.15999C42.2839 6.72 40.3639 6 37.7239 6H13.1239V73.44C13.1239 74.08 13.2039 74.76 13.3639 75.48C13.5239 76.2 13.7639 76.88 14.0839 77.52C14.4839 78.16 14.9239 78.72 15.4039 79.2C15.8839 79.6 16.4439 79.8 17.0839 79.8ZM83.7861 79.8H84.3861C86.3061 79.8 87.2661 78.92 87.2661 77.16C87.2661 76.52 87.1461 75.84 86.9061 75.12L76.1061 45.96H55.1061L44.6661 74.64C44.4261 75.28 44.3061 75.88 44.3061 76.44C44.3061 77.48 44.5861 78.32 45.1461 78.96C45.7061 79.52 46.3061 79.8 46.9461 79.8H47.5461V81H34.2261V79.8H34.8261C35.8661 79.8 36.8661 79.2 37.8261 78C38.8661 76.72 39.7061 75.24 40.3461 73.56L67.8261 0.359994L94.7061 72.84C95.2661 74.44 96.0261 76 96.9861 77.52C98.0261 79.04 99.3461 79.8 100.946 79.8H101.546V81H83.7861V79.8ZM56.3061 41.88H74.7861L65.5461 16.8L56.3061 41.88ZM175.087 79.8H175.687C176.247 79.8 176.767 79.56 177.247 79.08C177.727 78.6 178.127 78.04 178.447 77.4C178.847 76.76 179.127 76.08 179.287 75.36C179.447 74.56 179.527 73.84 179.527 73.2V10.08L148.567 82.32L119.167 13.8V73.2C119.167 73.84 119.247 74.56 119.407 75.36C119.567 76.08 119.807 76.76 120.127 77.4C120.527 78.04 120.967 78.6 121.447 79.08C121.927 79.56 122.487 79.8 123.127 79.8H123.727V81H110.647V79.8H111.247C111.807 79.8 112.327 79.56 112.807 79.08C113.287 78.6 113.687 78.04 114.007 77.4C114.327 76.76 114.567 76.08 114.727 75.36C114.887 74.56 114.967 73.84 114.967 73.2V9.23999C114.967 8.68 114.887 8.04 114.727 7.32C114.567 6.6 114.327 5.92 114.007 5.27999C113.687 4.63999 113.287 4.11999 112.807 3.71999C112.327 3.24 111.807 3 111.247 3H110.647V1.8H122.887L150.727 67.44L178.567 1.8H192.127V3H191.527C190.887 3 190.327 3.24 189.847 3.71999C189.367 4.11999 188.927 4.63999 188.527 5.27999C188.207 5.92 187.967 6.6 187.807 7.32C187.647 8.04 187.567 8.68 187.567 9.23999V73.2C187.567 73.84 187.647 74.56 187.807 75.36C187.967 76.08 188.207 76.76 188.527 77.4C188.927 78.04 189.367 78.6 189.847 79.08C190.327 79.56 190.887 79.8 191.527 79.8H192.127V81H175.087V79.8ZM205.609 79.8H206.209C206.849 79.8 207.409 79.6 207.889 79.2C208.369 78.72 208.769 78.16 209.089 77.52C209.489 76.88 209.769 76.2 209.929 75.48C210.169 74.76 210.289 74.08 210.289 73.44V9.23999C210.289 8.68 210.169 8.04 209.929 7.32C209.769 6.6 209.489 5.92 209.089 5.27999C208.769 4.63999 208.369 4.11999 207.889 3.71999C207.409 3.24 206.849 3 206.209 3H205.609V1.8H249.529V13.2H248.329C248.329 11.36 247.689 9.76 246.409 8.4C245.129 6.96 243.169 6.24 240.529 6.24H218.329V35.4H223.849C227.529 35.4 231.169 35.76 234.769 36.48C238.449 37.2 241.729 38.44 244.609 40.2C247.569 41.88 249.929 44.2 251.689 47.16C253.529 50.12 254.449 53.84 254.449 58.32C254.449 61.84 253.769 65 252.409 67.8C251.129 70.6 249.289 73 246.889 75C244.489 76.92 241.609 78.4 238.249 79.44C234.969 80.48 231.369 81 227.449 81H205.609V79.8ZM223.009 76.8C227.009 76.8 230.449 76.36 233.329 75.48C236.289 74.6 238.729 73.4 240.649 71.88C242.569 70.28 243.969 68.44 244.849 66.36C245.809 64.2 246.289 61.88 246.289 59.4C246.289 53.56 244.209 48.8 240.049 45.12C235.889 41.36 229.969 39.48 222.289 39.48H218.329V76.8H223.009ZM315.051 79.8H315.651C316.291 79.8 316.851 79.6 317.331 79.2C317.811 78.72 318.211 78.16 318.531 77.52C318.931 76.8 319.211 76.08 319.371 75.36C319.531 74.56 319.611 73.84 319.611 73.2V18.24L279.771 72.12V73.2C279.771 73.84 279.851 74.56 280.011 75.36C280.251 76.08 280.531 76.76 280.851 77.4C281.171 78.04 281.571 78.6 282.051 79.08C282.531 79.56 283.091 79.8 283.731 79.8H284.331V81H267.291V79.8H267.891C268.531 79.8 269.091 79.6 269.571 79.2C270.051 78.72 270.451 78.16 270.771 77.52C271.171 76.8 271.451 76.08 271.611 75.36C271.771 74.56 271.851 73.84 271.851 73.2V9.23999C271.851 8.68 271.771 8.04 271.611 7.32C271.451 6.6 271.171 5.92 270.771 5.27999C270.451 4.63999 270.051 4.11999 269.571 3.71999C269.091 3.24 268.531 3 267.891 3H267.291V1.8H284.331V3H283.371C282.811 3.07999 282.291 3.36 281.811 3.84C281.411 4.32 281.051 4.88 280.731 5.52C280.411 6.08 280.171 6.72 280.011 7.44C279.851 8.08 279.771 8.68 279.771 9.23999V64.68L319.611 10.8V9.23999C319.611 8.68 319.531 8.04 319.371 7.32C319.211 6.6 318.931 5.92 318.531 5.27999C318.211 4.63999 317.811 4.11999 317.331 3.71999C316.851 3.24 316.291 3 315.651 3H315.051V1.8H332.091V3H331.491C330.851 3 330.291 3.24 329.811 3.71999C329.331 4.11999 328.931 4.63999 328.611 5.27999C328.291 5.92 328.011 6.6 327.771 7.32C327.611 8.04 327.531 8.68 327.531 9.23999V73.2C327.531 73.84 327.611 74.52 327.771 75.24C328.011 75.96 328.291 76.68 328.611 77.4C328.931 78.04 329.331 78.6 329.811 79.08C330.291 79.56 330.851 79.8 331.491 79.8H332.091V81H315.051V79.8ZM375.623 79.8H376.223V81H359.183V79.8H359.783C360.423 79.8 360.983 79.56 361.463 79.08C361.943 78.6 362.343 78.04 362.663 77.4C363.063 76.76 363.343 76.08 363.503 75.36C363.663 74.56 363.743 73.84 363.743 73.2V6.24H349.823C348.543 6.24 347.423 6.52 346.463 7.07999C345.503 7.64 344.703 8.36 344.063 9.23999C343.423 10.04 342.943 10.96 342.623 12C342.303 12.96 342.143 13.92 342.143 14.88H340.943V1.8H394.823V14.88H393.623C393.623 13.92 393.463 12.96 393.143 12C392.823 10.96 392.343 10.04 391.703 9.23999C391.063 8.36 390.263 7.64 389.303 7.07999C388.343 6.52 387.223 6.24 385.943 6.24H371.783V73.2C371.783 73.84 371.863 74.56 372.023 75.36C372.183 76.08 372.423 76.76 372.743 77.4C373.143 78.04 373.543 78.6 373.943 79.08C374.423 79.56 374.983 79.8 375.623 79.8Z" fill="white"></path> </svg> 